<?xml version="1.0" encoding="UTF-8" standalone="no"?>
<!DOCTYPE svg PUBLIC "-//W3C//DTD SVG 1.1//EN"
 "http://www.w3.org/Graphics/SVG/1.1/DTD/svg11.dtd">
<!-- Generated by graphviz version 2.38.0 (20140413.2041)
 -->
<!-- Title: %3 Pages: 1 -->
<svg width="78pt" height="188pt"
 viewBox="0.00 0.00 78.19 188.00" xmlns="http://www.w3.org/2000/svg" xmlns:xlink="http://www.w3.org/1999/xlink">
<g id="graph0" class="graph" transform="scale(1 1) rotate(0) translate(4 184)">
<title>%3</title>
<!-- HEAD -->
<g id="node1" class="node"><title>HEAD</title>
<ellipse fill="yellow" stroke="black" cx="35.0969" cy="-162" rx="35.194" ry="18"/>
<text text-anchor="middle" x="35.0969" y="-158.3" font-family="Times,serif" font-size="14.00">HEAD</text>
</g>
<!-- master -->
<g id="node2" class="node"><title>master</title>
<ellipse fill="white" stroke="black" cx="35.0969" cy="-90" rx="34.394" ry="18"/>
<text text-anchor="middle" x="35.0969" y="-86.3" font-family="Times,serif" font-size="14.00" fill="red">master</text>
</g>
<!-- HEAD&#45;&gt;master -->
<g id="edge1" class="edge"><title>HEAD&#45;&gt;master</title>
<path fill="none" stroke="black" stroke-dasharray="5,2" d="M35.0969,-143.697C35.0969,-135.983 35.0969,-126.712 35.0969,-118.112"/>
<polygon fill="black" stroke="black" points="38.597,-118.104 35.0969,-108.104 31.597,-118.104 38.597,-118.104"/>
</g>
<!-- C1 -->
<g id="node3" class="node"><title>C1</title>
<polygon fill="white" stroke="black" points="62.0969,-36 8.09689,-36 8.09689,-0 62.0969,-0 62.0969,-36"/>
<text text-anchor="middle" x="35.0969" y="-14.3" font-family="Times,serif" font-size="14.00">C1</text>
</g>
<!-- master&#45;&gt;C1 -->
<g id="edge2" class="edge"><title>master&#45;&gt;C1</title>
<path fill="none" stroke="black" stroke-dasharray="5,2" d="M35.0969,-71.6966C35.0969,-63.9827 35.0969,-54.7125 35.0969,-46.1124"/>
<polygon fill="black" stroke="black" points="38.597,-46.1043 35.0969,-36.1043 31.597,-46.1044 38.597,-46.1043"/>
</g>
</g>
</svg>
