<?xml version="1.0" encoding="UTF-8" standalone="no"?>
<!DOCTYPE svg PUBLIC "-//W3C//DTD SVG 1.1//EN"
 "http://www.w3.org/Graphics/SVG/1.1/DTD/svg11.dtd">
<!-- Generated by graphviz version 2.38.0 (20140413.2041)
 -->
<!-- Title: %3 Pages: 1 -->
<svg width="149pt" height="188pt"
 viewBox="0.00 0.00 149.10 188.00" xmlns="http://www.w3.org/2000/svg" xmlns:xlink="http://www.w3.org/1999/xlink">
<g id="graph0" class="graph" transform="scale(1 1) rotate(0) translate(4 184)">
<title>%3</title>
<!-- HEAD -->
<g id="node1" class="node"><title>HEAD</title>
<ellipse fill="yellow" stroke="black" cx="35.0969" cy="-162" rx="35.194" ry="18"/>
<text text-anchor="middle" x="35.0969" y="-158.3" font-family="Times,serif" font-size="14.00">HEAD</text>
</g>
<!-- master -->
<g id="node2" class="node"><title>master</title>
<ellipse fill="white" stroke="black" cx="35.0969" cy="-90" rx="34.394" ry="18"/>
<text text-anchor="middle" x="35.0969" y="-86.3" font-family="Times,serif" font-size="14.00" fill="red">master</text>
</g>
<!-- HEAD&#45;&gt;master -->
<g id="edge1" class="edge"><title>HEAD&#45;&gt;master</title>
<path fill="none" stroke="black" stroke-dasharray="5,2" d="M35.0969,-143.697C35.0969,-135.983 35.0969,-126.712 35.0969,-118.112"/>
<polygon fill="black" stroke="black" points="38.597,-118.104 35.0969,-108.104 31.597,-118.104 38.597,-118.104"/>
</g>
<!-- C1 -->
<g id="node4" class="node"><title>C1</title>
<polygon fill="white" stroke="black" points="64.0969,-36 10.0969,-36 10.0969,-0 64.0969,-0 64.0969,-36"/>
<text text-anchor="middle" x="37.0969" y="-14.3" font-family="Times,serif" font-size="14.00" fill="red">C1</text>
</g>
<!-- master&#45;&gt;C1 -->
<g id="edge2" class="edge"><title>master&#45;&gt;C1</title>
<path fill="none" stroke="black" stroke-dasharray="5,2" d="M35.5913,-71.6966C35.8117,-63.9827 36.0765,-54.7125 36.3222,-46.1124"/>
<polygon fill="black" stroke="black" points="39.8211,-46.2002 36.6082,-36.1043 32.8239,-46.0003 39.8211,-46.2002"/>
</g>
<!-- dev -->
<g id="node3" class="node"><title>dev</title>
<ellipse fill="white" stroke="black" cx="114.097" cy="-90" rx="27" ry="18"/>
<text text-anchor="middle" x="114.097" y="-86.3" font-family="Times,serif" font-size="14.00" fill="red">dev</text>
</g>
<!-- C2 -->
<g id="node5" class="node"><title>C2</title>
<polygon fill="white" stroke="black" points="139.097,-36 85.0969,-36 85.0969,-0 139.097,-0 139.097,-36"/>
<text text-anchor="middle" x="112.097" y="-14.3" font-family="Times,serif" font-size="14.00" fill="red">C2</text>
</g>
<!-- dev&#45;&gt;C2 -->
<g id="edge3" class="edge"><title>dev&#45;&gt;C2</title>
<path fill="none" stroke="black" stroke-dasharray="5,2" d="M113.603,-71.6966C113.382,-63.9827 113.117,-54.7125 112.872,-46.1124"/>
<polygon fill="black" stroke="black" points="116.37,-46.0003 112.586,-36.1043 109.373,-46.2002 116.37,-46.0003"/>
</g>
<!-- C1&#45;&gt;C2 -->
<g id="edge4" class="edge"><title>C1&#45;&gt;C2</title>
<path fill="none" stroke="black" d="M74.6026,-18C78.0225,-18 81.4424,-18 84.8622,-18"/>
<polygon fill="black" stroke="black" points="74.343,-14.5001 64.343,-18 74.3429,-21.5001 74.343,-14.5001"/>
</g>
</g>
</svg>
