<?xml version="1.0" encoding="UTF-8" standalone="no"?>
<!DOCTYPE svg PUBLIC "-//W3C//DTD SVG 1.1//EN"
 "http://www.w3.org/Graphics/SVG/1.1/DTD/svg11.dtd">
<!-- Generated by graphviz version 2.38.0 (20140413.2041)
 -->
<!-- Title: %3 Pages: 1 -->
<svg width="149pt" height="260pt"
 viewBox="0.00 0.00 149.10 260.00" xmlns="http://www.w3.org/2000/svg" xmlns:xlink="http://www.w3.org/1999/xlink">
<g id="graph0" class="graph" transform="scale(1 1) rotate(0) translate(4 256)">
<title>%3</title>
<!-- HEAD -->
<g id="node1" class="node"><title>HEAD</title>
<ellipse fill="yellow" stroke="black" cx="35.0969" cy="-234" rx="35.194" ry="18"/>
<text text-anchor="middle" x="35.0969" y="-230.3" font-family="Times,serif" font-size="14.00">HEAD</text>
</g>
<!-- master -->
<g id="node2" class="node"><title>master</title>
<ellipse fill="white" stroke="black" cx="35.0969" cy="-162" rx="34.394" ry="18"/>
<text text-anchor="middle" x="35.0969" y="-158.3" font-family="Times,serif" font-size="14.00" fill="red">master</text>
</g>
<!-- HEAD&#45;&gt;master -->
<g id="edge1" class="edge"><title>HEAD&#45;&gt;master</title>
<path fill="none" stroke="black" stroke-dasharray="5,2" d="M35.0969,-215.697C35.0969,-207.983 35.0969,-198.712 35.0969,-190.112"/>
<polygon fill="black" stroke="black" points="38.597,-190.104 35.0969,-180.104 31.597,-190.104 38.597,-190.104"/>
</g>
<!-- C1 -->
<g id="node4" class="node"><title>C1</title>
<polygon fill="white" stroke="black" points="62.0969,-36 8.09689,-36 8.09689,-0 62.0969,-0 62.0969,-36"/>
<text text-anchor="middle" x="35.0969" y="-14.3" font-family="Times,serif" font-size="14.00" fill="red">C1</text>
</g>
<!-- master&#45;&gt;C1 -->
<g id="edge2" class="edge"><title>master&#45;&gt;C1</title>
<path fill="none" stroke="black" stroke-dasharray="5,2" d="M30.5424,-144.153C27.9599,-120.05 27.6557,-75.4474 29.6296,-46.5141"/>
<polygon fill="black" stroke="black" points="33.1409,-46.5276 30.4977,-36.2678 26.1659,-45.9366 33.1409,-46.5276"/>
</g>
<!-- master&#45;&gt;C1 -->
<!-- C2 -->
<g id="node5" class="node"><title>C2</title>
<polygon fill="white" stroke="black" points="126.097,-108 72.0969,-108 72.0969,-72 126.097,-72 126.097,-108"/>
<text text-anchor="middle" x="99.0969" y="-86.3" font-family="Times,serif" font-size="14.00" fill="red">C2</text>
</g>
<!-- master&#45;&gt;C2 -->
<!-- dev -->
<g id="node3" class="node"><title>dev</title>
<ellipse fill="white" stroke="black" cx="114.097" cy="-162" rx="27" ry="18"/>
<text text-anchor="middle" x="114.097" y="-158.3" font-family="Times,serif" font-size="14.00" fill="red">dev</text>
</g>
<!-- dev&#45;&gt;C2 -->
<g id="edge3" class="edge"><title>dev&#45;&gt;C2</title>
<path fill="none" stroke="black" stroke-dasharray="5,2" d="M110.466,-144.055C108.796,-136.261 106.773,-126.822 104.9,-118.079"/>
<polygon fill="black" stroke="black" points="108.316,-117.32 102.799,-108.275 101.472,-118.787 108.316,-117.32"/>
</g>
<!-- C1&#45;&gt;C2 -->
<g id="edge4" class="edge"><title>C1&#45;&gt;C2</title>
<path fill="none" stroke="black" d="M63.7798,-43.3045C72.8492,-52.6562 82.2478,-63.135 89.1924,-71.6966"/>
<polygon fill="black" stroke="black" points="66.1599,-40.7341 56.6302,-36.1043 61.1928,-45.6664 66.1599,-40.7341"/>
</g>
<!-- C2&#45;&gt;C1 -->
</g>
</svg>
