<svg xmlns="http://www.w3.org/2000/svg" width="143mm" height="66mm" viewBox="-1 0 142 66" xmlns:xlink="http://www.w3.org/1999/xlink">
  <defs>
    <symbol id="commit">
      <rect width="100%" height="100%" fill="white" stroke="black" stroke-width="0.5" />
    </symbol>
    <marker id="arrow" markerWidth="100" markerHeight="100" refX="6" refY="10" orient="auto">
      <path d="M3,7 l3,3 l-3,3" stroke="black" fill="none" />
    </marker>
  </defs>

  <style>
    text {
      font-size: 5px;
      text-anchor: middle;
      dominant-baseline: text-bottom;
    }

    .branch {
      font-style: italic;
      fill: red;
    }

    ellipse {
      fill: white;
      stroke: black;
      stroke-width: 0.5;
    }

    .brline {
      stroke: black;
      stroke-width: 0.5;
      stroke-dasharray: 2, 1;
      marker-end: url(#arrow);
    }
  </style>

  <g transform="translate(0, 40)">
    <svg width="20" height="6">
      <use xlink:href="#commit" />
      <text x="50%" y="70%">Start</text>
    </svg>
    <g transform="translate(0, -15)">
      <ellipse cx="10" cy="0" rx="10" ry="4" />
      <text x="10" y="1.5" class="branch">orig</text>
      <line x1="10" y1="4" x2="10" y2="15" class="brline" />
    </g>
  </g>

  <g transform="translate(40, 20)">
    <svg width="20" height="6">
      <use xlink:href="#commit" />
      <text x="50%" y="70%">A</text>
    </svg>
    <line id="A_to_S" x1="0" y1="3" x2="-20" y2="20" stroke="black" stroke-width="0.5" marker-end="url(#arrow)" />
  </g>

  <g transform="translate(40, 40)">
    <svg width="20" height="6">
      <use xlink:href="#commit" />
      <text x="50%" y="70%">B</text>
    </svg>
    <g transform="translate(31, 7)">
      <ellipse cx="10" cy="0" rx="10" ry="4" />
      <text x="10" y="1.5" class="branch">test</text>
      <line x1="0" y1="0" x2="-11" y2="-1" class="brline" />
    </g>
    <line id="B_to_S" x1="0" y1="3" x2="-20" y2="3" stroke="black" stroke-width="0.5" marker-end="url(#arrow)" />
  </g>

  <g transform="translate(40, 60)">
    <svg width="20" height="6">
      <use xlink:href="#commit" />
      <text x="50%" y="70%">C</text>
    </svg>
    <line id="C_to_S" x1="0" y1="3" x2="-20" y2="-14" stroke="black" stroke-width="0.5" marker-end="url(#arrow)" />
  </g>

  <g transform="translate(80, 10)">
    <svg width="20" height="6">
      <use xlink:href="#commit" />
      <text x="50%" y="70%">D</text>
    </svg>
    <g transform="translate(31, 3)">
      <ellipse cx="10" cy="0" rx="10" ry="4" />
      <text x="10" y="1.5" class="branch">draft</text>
      <line x1="0" y1="0" x2="-11" y2="0" class="brline" />
    </g>
    <line id="D_to_A" x1="0" y1="3" x2="-20" y2="10" stroke="black" stroke-width="0.5" marker-end="url(#arrow)" />
  </g>

  <g transform="translate(80, 30)">
    <svg width="20" height="6">
      <use xlink:href="#commit" />
      <text x="50%" y="70%">E</text>
    </svg>
    <line id="E_to_A" x1="0" y1="3" x2="-20" y2="-7" stroke="black" stroke-width="0.5" marker-end="url(#arrow)" />
    <line id="E_to_B" x1="0" y1="3" x2="-20" y2="13" stroke="black" stroke-width="0.5" marker-end="url(#arrow)" />
  </g>

  <g transform="translate(120, 50)">
    <svg width="20" height="6">
      <use xlink:href="#commit" />
      <text x="50%" y="70%">F</text>
    </svg>
    <g transform="translate(0, -15)">
      <ellipse cx="10" cy="0" rx="10" ry="4" />
      <text x="10" y="1.5" class="branch">main</text>
      <line x1="10" y1="4" x2="10" y2="15" class="brline" />
    </g>
    <line id="F_to_B" x1="0" y1="3" x2="-20" y2="-17" stroke="black" stroke-width="0.5" marker-end="url(#arrow)" />
    <line id="F_to_C" x1="0" y1="3" x2="-60" y2="13" stroke="black" stroke-width="0.5" marker-end="url(#arrow)" />
  </g>

</svg>