<svg xmlns="http://www.w3.org/2000/svg" width="170mm" height="66mm" viewBox="0 0 170 66" xmlns:xlink="http://www.w3.org/1999/xlink">
  <defs>
    <symbol id="commit">
      <rect width="100%" height="100%" fill="white" stroke="black" stroke-width="0.5" />
    </symbol>
    <marker id="arrow" markerWidth="100" markerHeight="100" refX="6" refY="10" orient="auto">
      <path d="M3,7 l3,3 l-3,3" stroke="black" fill="none" />
    </marker>
  </defs>

  <style>
    text {
      font-size: 5px;
      text-anchor: middle;
      dominant-baseline: text-bottom;
    }
  </style>

  <svg x="0" y="40" width="20" height="6">
    <use xlink:href="#commit" />
    <text x="50%" y="70%">Start</text>
    <circle cx="50%" cy="50%" r="1" fill="red" />
  </svg>

  <g transform="translate(40, 20)">
    <svg width="20" height="6">
      <use xlink:href="#commit" />
      <text x="50%" y="70%">A</text>
      <circle cx="50%" cy="50%" r="1" fill="red" />
    </svg>
    <line id="A_to_S" x1="0" y1="3" x2="-20" y2="23" stroke="black" stroke-width="0.5" marker-end="url(#arrow)" />
  </g>

  <svg x="40" y="40" width="20" height="6">
    <use xlink:href="#commit" />
    <text x="50%" y="70%">B</text>
    <circle cx="50%" cy="50%" r="1" fill="red" />
  </svg>

  <svg x="40" y="60" width="20" height="6">
    <use xlink:href="#commit" />
    <text x="50%" y="70%">C</text>
    <circle cx="50%" cy="50%" r="1" fill="red" />
  </svg>

  <svg x="80" y="10" width="20" height="6">
    <use xlink:href="#commit" />
    <text x="50%" y="70%">D</text>
    <circle cx="50%" cy="50%" r="1" fill="red" />
  </svg>

  <svg x="80" y="30" width="20" height="6">
    <use xlink:href="#commit" />
    <text x="50%" y="70%">E</text>
    <circle cx="50%" cy="50%" r="1" fill="red" />
  </svg>

  <svg x="120" y="50" width="20" height="6">
    <use xlink:href="#commit" />
    <text x="50%" y="70%">F</text>
    <circle cx="50%" cy="50%" r="1" fill="red" />
  </svg>

</svg>