<?xml version="1.0" encoding="UTF-8" standalone="no"?>
<svg version="1.1" xml:lang="en" width="200mm" height="75mm" viewBox="0 0 200 150" xmlns:svg="http://www.w3.org/2000/svg" xmlns:xlink="http://www.w3.org/1999/xlink" xmlns="http://www.w3.org/2000/svg" id="git_br" font-size="5" text-anchor="middle" dominant-baseline="middle">
  <defs>
    <symbol id="commit">
      <rect width="100%" height="100%" fill="white" stroke="black" />
    </symbol>
    <marker id="arrow" markerWidth="100" markerHeight="100" refX="6" refY="10" orient="auto">
      <path d="M3,7 l3,3 l-3,3" stroke="black" fill="none" />
    </marker>
  </defs>
  <g transform="translate(0, 50)">
    <svg id="S" x="0" y="0" width="20" height="6">
      <g viewBox="0 0 100 100">
        <use xlink:href="#commit" />
        <text x="50%" y="60%">Start</text>
      </g>
    </svg>
  </g>
  <g transform="translate(100, 0)">
    <svg id="B" x="0" y="0" width="20" height="6">
      <g viewBox="0 0 100 100">
        <use xlink:href="#commit" />
        <text x="50%" y="60%" font-style="italic">A</text>
      </g>
    </svg>
  </g>
  <g transform="translate(100, 100)">
    <svg id="A" x="0" y="0" width="20" height="6">
      <g viewBox="0 0 100 100">
        <use xlink:href="#commit" />
        <text x="50%" y="60%" font-style="italic">C</text>
      </g>
    </svg>
  </g>
  <g transform="translate(200, 0)">
    <svg id="C" x="0" y="0" width="20" height="6">
      <g viewBox="0 0 100 100">
        <use xlink:href="#commit" />
        <text x="50%" y="60%" font-style="italic">B</text>
      </g>
    </svg>
  </g>
  <g transform="translate(300, 50)">
    <svg id="D" x="0" y="0" width="20" height="6">
      <g viewBox="0 0 100 100">
        <use xlink:href="#commit" />
        <text x="50%" y="60%" font-style="italic">D</text>
      </g>
    </svg>
  </g>

  <line id="B_to_S" x1="100" y1="3" x2="20" y2="53" stroke="black" stroke-width="0.5" marker-end="url(#arrow)" />
  <line id="A_to_S" x1="100" y1="103" x2="20" y2="56" stroke="black" stroke-width="0.5" marker-end="url(#arrow)" />
  <line id="C_to_B" x1="200" y1="3" x2="120" y2="3" stroke="black" stroke-width="0.5" marker-end="url(#arrow)" />
  <line id="D_to_C" x1="300" y1="53" x2="220" y2="3" stroke="black" stroke-width="0.5" marker-end="url(#arrow)" />
  <line id="D_to_A" x1="300" y1="53" x2="120" y2="103" stroke="black" stroke-width="0.5" marker-end="url(#arrow)" />

  <g transform="translate(100, 104)">
    <ellipse cx="10" cy="0" rx="10" ry="3" stroke="black" fill="white" stroke-width="0.5" />
    <text x="10" y="1" font-style="italic" fill="red" stroke-width="0.25">br2</text>
  </g>
  <g transform="translate(100, 6)">
    <ellipse cx="10" cy="0" rx="10" ry="3" stroke="black" fill="white" stroke-width="0.5" />
    <text x="10" y="1" font-style="italic" fill="red" stroke-width="0.25">br1</text>
  </g>
  <g transform="translate(100, 0)">
    <line id="br1_to_A" x1="10" y1="101" x2="110" y2="100" stroke="black" stroke-width="0.5" stroke-dasharray="2, 1" marker-end="url(#arrow)" />
    <line id="br2_to_B" x1="10" y1="9" x2="110" y2="0" stroke="black" stroke-width="0.5" stroke-dasharray="2, 1" marker-end="url(#arrow)" />
  </g>
  <g transform="translate(300, 65)">
    <ellipse cx="10" cy="0" rx="10" ry="3" stroke="black" fill="white" stroke-width="0.5" />
    <text x="10" y="1" font-style="italic" fill="red" stroke-width="0.25">br3</text>
  </g>
  <g transform="translate(300, 50)">
    <line id="br3_to_D" x1="10" y1="18" x2="10" y2="50" stroke="black" stroke-width="0.5" stroke-dasharray="2, 1" marker-end="url(#arrow)" />
  </g>
</svg>