<?xml version="1.0" encoding="UTF-8" standalone="no"?>
<svg version="1.1" xml:lang="en" width="200mm" height="57mm" viewBox="0 0 200 57"
  xmlns:svg="http://www.w3.org/2000/svg"
  xmlns:xlink="http://www.w3.org/1999/xlink"
  xmlns="http://www.w3.org/2000/svg"
  id="git_br" font-size="5" text-anchor="middle" dominant-baseline="middle">
	<defs>
		<symbol id="commit">
			<rect width="100%" height="100%" fill="white" stroke="black" />
		</symbol>
		<marker id="arrow" markerWidth="100" markerHeight="100" refX="6" refY="10" orient="auto">
			<path d="M3,7 l3,3 l-3,3" stroke="black" fill="none" />
		</marker>
	</defs>
	<svg id="dots0" x="0" y="27" width="20" height="6">
		<g viewBox="0 0 100 100">
			<use xlink:href="#commit" />
			<text x="50%" y="75%">…</text>
		</g>
	</svg>
	<svg id="S" x="45" y="27" width="20" height="6">
		<g viewBox="0 0 100 100">
			<use xlink:href="#commit" />
			<text x="50%" y="78%">Start</text>
		</g>
	</svg>
	<svg id="dots1" x="90" y="0" width="20" height="6">
		<g viewBox="0 0 100 100">
			<use xlink:href="#commit" />
			<text x="50%" y="76%">…</text>
		</g>
	</svg>
	<svg id="B" x="90" y="18" width="20" height="6">
		<g viewBox="0 0 100 100">
			<use xlink:href="#commit" />
			<text x="50%" y="78%" font-style="italic">B</text>
		</g>
	</svg>
	<svg id="A" x="90" y="36" width="20" height="6">
		<g viewBox="0 0 100 100">
			<use xlink:href="#commit" />
			<text x="50%" y="78%" font-style="italic">A</text>
		</g>
	</svg>
	<svg id="C" x="135" y="18" width="20" height="6">
		<g viewBox="0 0 100 100">
			<use xlink:href="#commit" />
			<text x="50%" y="78%" font-style="italic">C</text>
		</g>
	</svg>
	<svg id="D" x="180" y="27" width="20" height="6">
		<g viewBox="0 0 100 100">
			<use xlink:href="#commit" />
			<text x="50%" y="78%" font-style="italic">D</text>
		</g>
	</svg>
	
	<line id="S_to_dots0" x1="45" y1="30" x2="20" y2="30" stroke="black" stroke-width="0.5" marker-end="url(#arrow)" />
	<line id="dots1_to_S" x1="90" y1="3" x2="65" y2="27" stroke="black" stroke-width="0.5" marker-end="url(#arrow)" />
	<line id="B_to_S" x1="90" y1="21" x2="65" y2="30" stroke="black" stroke-width="0.5" marker-end="url(#arrow)" />
	<line id="A_to_S" x1="90" y1="39" x2="65" y2="33" stroke="black" stroke-width="0.5" marker-end="url(#arrow)" />
	<line id="C_to_B" x1="135" y1="21" x2="110" y2="21" stroke="black" stroke-width="0.5" marker-end="url(#arrow)" />
	<line id="D_to_C" x1="180" y1="30" x2="155" y2="21" stroke="black" stroke-width="0.5" marker-end="url(#arrow)" />
	<line id="D_to_A" x1="180" y1="30" x2="110" y2="39" stroke="black" stroke-width="0.5" marker-end="url(#arrow)" />

	<ellipse cx="100" cy="54" rx="10" ry="3" stroke="black" fill="white" stroke-width="0.5" />
	<text x="100" y="55" font-style="italic" fill="red" stroke-width="0.25">br1</text>
	<ellipse cx="145" cy="6" rx="10" ry="3" stroke="black" fill="white" stroke-width="0.5" />
	<text x="145" y="7" font-style="italic" fill="red" stroke-width="0.25">br2</text>
	<ellipse cx="190" cy="15" rx="10" ry="3" stroke="black" fill="white" stroke-width="0.5" />
	<text x="190" y="16" font-style="italic" fill="red" stroke-width="0.25">br3</text>

	<line id="br1_to_A" x1="100" y1="51" x2="100" y2="42" stroke="black" stroke-width="0.5" stroke-dasharray="2, 1" marker-end="url(#arrow)" />
	<line id="br2_to_C" x1="145" y1="9" x2="145" y2="18" stroke="black" stroke-width="0.5" stroke-dasharray="2, 1" marker-end="url(#arrow)" />
	<line id="br3_to_D" x1="190" y1="18" x2="190" y2="27" stroke="black" stroke-width="0.5" stroke-dasharray="2, 1" marker-end="url(#arrow)" />
</svg>

